<svg xmlns="http://www.w3.org/2000/svg" width="3000" height="3000" viewBox="0 0 3000 3000" version="1.1">
	<path d="M 695.500 667.086 C 507.950 696.201, 353.878 720.370, 353.118 720.796 C 352.358 721.221, 309.952 810.653, 258.883 919.534 L 166.029 1117.500 166.015 1149 L 166 1180.501 416.215 1325.947 C 604.898 1435.626, 667.114 1471.341, 669.215 1471.180 C 672.835 1470.905, 1353.283 1365.051, 1353.623 1364.711 C 1353.765 1364.568, 1395.827 1274.913, 1447.094 1165.476 L 1540.308 966.500 1539.658 936.040 C 1539.180 913.601, 1538.678 905.275, 1537.754 904.422 C 1535.556 902.392, 1039.660 614.508, 1038.047 614.325 C 1037.196 614.228, 883.050 637.971, 695.500 667.086 M 1035 722.668 C 1015.402 723.730, 993.800 725.367, 976.500 727.100 C 796.536 745.132, 640.054 808.050, 548.979 898.998 C 501.909 946.001, 474.657 997.295, 467.529 1052.301 C 466.688 1058.792, 466 1067.004, 466 1070.551 L 466 1077 506.500 1077 C 528.775 1077, 547.007 1076.662, 547.016 1076.250 C 547.159 1069.449, 549.430 1049.871, 551.048 1041.487 C 571.140 937.373, 685.699 844.999, 852.308 798.566 C 916.858 780.576, 999.128 769.049, 1063.250 769.010 L 1079 769 1079 745.500 L 1079 722 1059.750 722.185 C 1049.162 722.287, 1038.025 722.504, 1035 722.668 M 1058.500 816.680 C 975.304 819.160, 891.099 835.783, 823.084 863.153 C 807.048 869.606, 775.077 885.078, 762.334 892.553 C 716.997 919.143, 681.387 951.086, 658.713 985.500 C 642.504 1010.103, 631.921 1040.516, 630.297 1067.160 L 629.698 1077 670.349 1077 L 711 1077 711.006 1072.750 C 711.026 1058.508, 716.617 1036.685, 724.421 1020.398 C 758.567 949.125, 855.520 892.353, 977.793 872.033 C 993.138 869.483, 1005.425 867.902, 1029 865.443 C 1032.025 865.128, 1044.043 864.543, 1055.708 864.144 C 1067.372 863.745, 1077.153 863.181, 1077.443 862.890 C 1077.734 862.600, 1078.274 851.931, 1078.645 839.181 L 1079.318 816 1073.409 816.206 C 1070.159 816.319, 1063.450 816.532, 1058.500 816.680 M 2022 905.959 C 1834.725 934.968, 1680.690 958.882, 1679.699 959.101 C 1678.399 959.389, 1652.097 1014.617, 1584.974 1158 L 1492.050 1356.500 1492.025 1388.011 L 1492 1419.523 1741.718 1564.511 C 1879.063 1644.255, 1992.575 1709.624, 1993.968 1709.775 C 1997.389 1710.146, 2679.045 1604.377, 2679.989 1603.328 C 2680.399 1602.873, 2722.419 1513.468, 2773.367 1404.652 L 2866 1206.803 2866 1175.524 C 2866 1151.703, 2865.702 1144.005, 2864.750 1143.240 C 2861.640 1140.739, 2364.722 853.012, 2363.677 853.107 C 2363.030 853.166, 2209.275 876.949, 2022 905.959 M 1055 911.661 C 1029.078 913.457, 1007.957 916.104, 987.500 920.122 C 909.589 935.423, 846.331 969.813, 814.820 1014 C 802.266 1031.604, 795.795 1048.800, 793.467 1070.750 L 792.804 1077 833.902 1077 L 875 1077 875 1071.710 C 875 1050.587, 892.008 1023.590, 916.981 1005.074 C 953.209 978.213, 1000.927 962.781, 1059.657 958.932 C 1068.920 958.325, 1076.550 957.754, 1076.611 957.664 C 1076.672 957.574, 1077.004 947.038, 1077.349 934.250 L 1077.977 911 1068.738 911.175 C 1063.657 911.271, 1057.475 911.490, 1055 911.661 M 2095.315 945.800 C 2087.513 956.635, 2081.213 965.940, 2081.315 966.478 C 2081.417 967.016, 2090.725 969.771, 2102 972.601 C 2207.658 999.117, 2291.065 1041.792, 2347 1097.955 C 2369.620 1120.667, 2384.174 1140.663, 2396.081 1165.391 C 2406.224 1186.457, 2411.069 1203.827, 2413.174 1226.675 C 2414.496 1241.023, 2413.507 1257.682, 2410.440 1272.750 C 2406.340 1292.892, 2395.007 1319.604, 2382.624 1338.312 C 2379.416 1343.159, 2376.951 1347.267, 2377.146 1347.440 C 2377.341 1347.613, 2394.150 1351.400, 2414.500 1355.854 L 2451.500 1363.954 2453.657 1361.529 C 2456.640 1358.176, 2466.133 1342.691, 2471.960 1331.672 C 2482.343 1312.038, 2490.248 1287.834, 2493.450 1265.872 C 2495.453 1252.136, 2495.455 1226.886, 2493.455 1213.128 C 2480.979 1127.327, 2409.650 1047.401, 2293.786 989.393 C 2246.799 965.869, 2195.028 947.086, 2135.419 931.938 C 2122.569 928.672, 2111.480 926.023, 2110.777 926.050 C 2110.075 926.078, 2103.117 934.965, 2095.315 945.800 M 2034.764 1030.486 C 2020.112 1050.871, 2020.053 1050.975, 2022.770 1051.607 C 2099.467 1069.434, 2160.073 1099, 2200.873 1138.492 C 2231.107 1167.756, 2246.452 1196.115, 2250.029 1229.339 C 2252.720 1254.332, 2245.207 1282.721, 2229.425 1307.199 C 2225.757 1312.889, 2225.362 1313.974, 2226.803 1314.398 C 2230.597 1315.513, 2298.120 1330, 2299.524 1330 C 2301.330 1330, 2308.570 1319.067, 2314.636 1307.179 C 2336.633 1264.069, 2337.433 1219.150, 2316.968 1176.175 C 2287.321 1113.918, 2213.021 1059.594, 2112.500 1026.679 C 2088.638 1018.865, 2056.105 1010, 2051.295 1010 C 2050.091 1010, 2044.579 1016.831, 2034.764 1030.486 M 1056.500 1030.533 C 1028.397 1035.734, 1007.586 1047.936, 999.785 1063.788 C 996.988 1069.470, 996.506 1071.515, 996.539 1077.540 C 996.593 1087.261, 999.835 1093.715, 1009.016 1102.377 C 1029.124 1121.345, 1069.292 1129.481, 1105.953 1122.010 C 1132.629 1116.573, 1150.630 1105.622, 1158.215 1090.214 C 1170.027 1066.222, 1150.918 1042.718, 1111.133 1032.304 C 1102.907 1030.151, 1098.797 1029.729, 1083 1029.418 C 1069.572 1029.153, 1062.307 1029.458, 1056.500 1030.533 M 1975 1113.145 C 1967.025 1124.246, 1960.384 1133.604, 1960.241 1133.941 C 1960.099 1134.277, 1963.249 1135.378, 1967.241 1136.387 C 2027.497 1151.619, 2070.980 1182.706, 2083.616 1219.587 C 2087.331 1230.431, 2087.537 1244.979, 2084.131 1255.957 C 2081.863 1263.264, 2076.622 1274.557, 2073.679 1278.477 C 2072.230 1280.408, 2073.078 1280.647, 2109.847 1288.695 L 2147.500 1296.936 2149.324 1294.766 C 2154.839 1288.204, 2162.283 1272.370, 2165.751 1259.827 C 2168.499 1249.888, 2168.202 1226.022, 2165.201 1215.605 C 2152.084 1170.071, 2104.296 1129.764, 2035.165 1105.927 C 2024.738 1102.331, 2000.372 1095.294, 1992.500 1093.605 C 1989.560 1092.974, 1989.210 1093.365, 1975 1113.145 M 1862.500 1193.707 C 1856.026 1194.585, 1842.154 1198.181, 1835.500 1200.706 C 1820.718 1206.314, 1808.889 1215.358, 1803.415 1225.239 C 1800.922 1229.739, 1800.500 1231.585, 1800.500 1238 C 1800.500 1244.448, 1800.917 1246.253, 1803.473 1250.868 C 1811.417 1265.212, 1832.634 1276.944, 1859.039 1281.593 C 1871.980 1283.872, 1894.507 1283.854, 1907.453 1281.555 C 1926.389 1278.192, 1943.032 1271.072, 1953.252 1261.963 C 1967.808 1248.990, 1969.069 1230.490, 1956.292 1217.397 C 1945.529 1206.369, 1927.860 1198.399, 1905.619 1194.541 C 1897.362 1193.108, 1870.708 1192.593, 1862.500 1193.707 M 1020.282 1514.359 C 832.062 1543.606, 677.627 1567.978, 677.092 1568.518 C 676.557 1569.058, 634.468 1658.321, 583.560 1766.881 L 491 1964.262 491.003 1995.881 L 491.006 2027.500 740.880 2172.750 C 878.311 2252.637, 991.770 2318, 993.011 2318 C 996.909 2318, 1677.466 2211.897, 1678.161 2211.181 C 1678.525 2210.806, 1720.494 2121.513, 1771.425 2012.750 L 1864.028 1815.001 1863.764 1783.434 L 1863.500 1751.867 1613.140 1606.433 C 1475.443 1526.445, 1362.718 1461.041, 1362.640 1461.091 C 1362.563 1461.141, 1208.502 1485.111, 1020.282 1514.359 M 1240 1573.040 C 1202.038 1576.441, 1172.056 1595.971, 1170.250 1618.477 C 1167.380 1654.226, 1229.208 1679.078, 1285.799 1664.922 C 1308.388 1659.271, 1325.192 1648.138, 1332.647 1633.883 C 1335.054 1629.279, 1335.460 1627.342, 1335.451 1620.500 C 1335.437 1610.159, 1332.938 1604.796, 1324.002 1595.930 C 1311.683 1583.709, 1290.512 1575.380, 1265.904 1573.075 C 1253.509 1571.914, 1252.587 1571.913, 1240 1573.040 M 1037.744 1689.381 C 1018.079 1695.478, 1002.141 1700.924, 1002.327 1701.483 C 1003.093 1703.788, 1025.942 1722.462, 1037.115 1729.914 C 1123.157 1787.301, 1267.814 1803.294, 1383.480 1768.207 L 1389.459 1766.393 1372.584 1748.447 C 1363.302 1738.576, 1354.489 1729.224, 1352.999 1727.664 L 1350.290 1724.829 1343.248 1726.926 C 1332.614 1730.093, 1310.138 1734.636, 1295 1736.679 C 1276.399 1739.188, 1230.328 1739.185, 1211.500 1736.672 C 1155.038 1729.137, 1112.346 1712.349, 1082 1685.748 L 1073.500 1678.297 1037.744 1689.381 M 894 1734.214 C 875.025 1740.259, 859.275 1745.433, 859 1745.711 C 858.117 1746.605, 880.591 1767.452, 892.231 1776.537 C 938.863 1812.932, 1003.136 1842.333, 1075.500 1860.370 C 1193.997 1889.906, 1326.916 1888.450, 1444.490 1856.327 C 1455.496 1853.321, 1464.801 1850.554, 1465.170 1850.180 C 1466.160 1849.175, 1429.005 1809, 1427.085 1809 C 1426.505 1809, 1419.675 1810.796, 1411.906 1812.992 C 1396.248 1817.417, 1371.851 1822.821, 1353.500 1825.929 C 1294.800 1835.869, 1224.611 1836.617, 1164.500 1827.943 C 1084.777 1816.438, 1013.320 1789.665, 963.729 1752.719 C 953.651 1745.210, 932.099 1726.587, 930.507 1724.011 C 930.163 1723.455, 929.571 1723.050, 929.191 1723.111 C 928.811 1723.172, 912.975 1728.169, 894 1734.214 M 750 1779.336 C 730.475 1785.403, 714.298 1790.522, 714.052 1790.714 C 713.284 1791.312, 730.976 1808.726, 742.500 1818.714 C 793.558 1862.967, 864.571 1901.412, 945 1928.342 C 1016.333 1952.226, 1087.907 1966.183, 1177.500 1973.680 C 1204.170 1975.911, 1291.788 1976.227, 1319 1974.190 C 1385.872 1969.184, 1443.135 1960.086, 1500 1945.433 C 1522.707 1939.582, 1542 1933.901, 1542 1933.066 C 1542 1932.531, 1527.906 1917.125, 1507.482 1895.335 L 1504.463 1892.115 1492.482 1895.589 C 1346.819 1937.827, 1180.197 1940.151, 1033.500 1901.991 C 963.013 1883.655, 903.978 1858.122, 852 1823.493 C 829.259 1808.342, 815.409 1797.321, 798.500 1780.918 L 785.500 1768.307 750 1779.336" stroke="none" fill="black" fill-rule="evenodd"/>
</svg>